<?xml version="1.0" encoding="UTF-8"?>
<!DOCTYPE svg PUBLIC "-//W3C//DTD SVG 1.1//EN" "http://www.w3.org/Graphics/SVG/1.1/DTD/svg11.dtd">
<svg version="1.1" xmlns="http://www.w3.org/2000/svg" xmlns:xlink="http://www.w3.org/1999/xlink" x="0" y="0" width="566.93" height="297.638" viewBox="0, 0, 1133.86, 595.276">
  <g id="Background">
    <rect x="0" y="0" width="1133.86" height="595.276" fill="#FFFFFF"/>
  </g>
  <defs>
    <linearGradient id="Gradient_1" gradientUnits="userSpaceOnUse" x1="-121.798" y1="-431.086" x2="-26.335" y2="-396.304" gradientTransform="matrix(-0.708, 0.706, -0.706, -0.708, 0, 0)">
      <stop offset="0" stop-color="#FFD716"/>
      <stop offset="0.5" stop-color="#E37623"/>
      <stop offset="1" stop-color="#BA3920"/>
    </linearGradient>
  </defs>
  <g id="Layer_2">
    <path d="M93,45.638 L1068,45.638 C1074.627,45.638 1080,51.011 1080,57.638 L1080,517.638 C1080,524.265 1074.627,529.638 1068,529.638 L93,529.638 C86.373,529.638 81,524.265 81,517.638 L81,57.638 C81,51.011 86.373,45.638 93,45.638 z" fill="#FFFFFF"/>
  </g>
  <g id="1.0">
    <path d="M395.909,277.434 C395.866,253.592 376.505,234.178 352.664,234.07 L352.664,234.07 L352.694,250.388 C367.523,250.457 379.564,262.532 379.59,277.36 L379.59,277.36 C379.618,292.19 367.62,304.157 352.791,304.089 L352.791,304.089 L352.821,320.409 C376.661,320.517 395.952,301.277 395.909,277.434" fill="#4AB2BC"/>
    <path d="M504.781,275.098 C500.606,275.098 497.221,271.713 497.221,267.538 L497.221,201.766 C497.221,197.591 500.606,194.206 504.781,194.206 C508.957,194.206 512.341,197.591 512.341,201.766 L512.341,267.538 C512.341,271.713 508.957,275.098 504.781,275.098" fill="#D1080D"/>
    <path d="M552.029,275.098 C547.854,275.098 544.469,271.713 544.469,267.538 L544.469,209.326 L559.589,209.326 L559.589,267.538 C559.589,271.713 556.204,275.098 552.029,275.098" fill="#5CAC35"/>
    <path d="M579.625,209.326 L559.589,209.326 L559.589,201.766 C559.589,197.591 556.205,194.206 552.029,194.206 L579.625,194.206 C583.798,194.206 587.185,197.591 587.185,201.766 C587.185,205.942 583.798,209.326 579.625,209.326 M544.469,209.326 L524.435,209.326 C520.26,209.326 516.875,205.942 516.875,201.766 C516.875,197.591 520.26,194.206 524.435,194.206 L552.029,194.206 C547.854,194.206 544.469,197.591 544.469,201.766 L544.469,209.326" fill="#2564A0"/>
    <path d="M559.589,209.326 L544.469,209.326 L544.469,201.766 C544.469,197.591 547.854,194.206 552.029,194.206 C556.204,194.206 559.589,197.591 559.589,201.766 L559.589,209.326" fill="#2564A0"/>
    <path d="M575.815,275.098 C574.664,275.098 573.495,274.834 572.398,274.277 C568.675,272.386 567.19,267.836 569.081,264.113 L602.488,198.342 C604.379,194.619 608.929,193.134 612.652,195.024 C616.374,196.915 617.86,201.466 615.969,205.188 L582.562,270.96 C581.228,273.586 578.571,275.098 575.815,275.098" fill="#4AB2BC"/>
    <path d="M642.642,275.098 C639.886,275.098 637.229,273.586 635.895,270.96 L630.594,260.523 L635.231,260.523 C639.406,260.523 642.79,257.138 642.79,252.963 C642.79,248.788 639.406,245.403 635.231,245.403 L622.914,245.403 L609.229,218.459 L615.969,205.188 C617.087,202.988 617.025,200.498 616.018,198.439 L649.376,264.114 C651.267,267.836 649.782,272.387 646.059,274.277 C644.963,274.835 643.793,275.098 642.642,275.098 M602.449,198.418 C602.922,197.459 603.599,196.596 604.457,195.899 C603.66,196.546 602.983,197.367 602.488,198.342 L602.449,198.418 M614.102,195.983 C614.101,195.982 614.1,195.981 614.099,195.98 C614.1,195.981 614.101,195.982 614.102,195.983 M614.078,195.963 C614.072,195.958 614.065,195.952 614.059,195.947 C614.065,195.952 614.072,195.958 614.078,195.963 M614.048,195.938 C614.037,195.928 614.026,195.92 614.016,195.911 C614.026,195.92 614.037,195.928 614.048,195.938 M614.013,195.909 C613.601,195.573 613.146,195.275 612.652,195.024 C612.601,194.998 612.55,194.973 612.499,194.948 C613.037,195.206 613.546,195.528 614.013,195.909 M604.457,195.899 C604.469,195.889 604.482,195.879 604.494,195.869 C604.482,195.879 604.469,195.889 604.457,195.899 M604.512,195.855 C604.515,195.852 604.519,195.85 604.522,195.846 C604.519,195.85 604.515,195.852 604.512,195.855 M604.553,195.822 C604.553,195.822 604.553,195.822 604.553,195.822 C604.553,195.822 604.553,195.822 604.553,195.822 M605.9,194.977 C606.953,194.461 608.068,194.212 609.168,194.204 C608.032,194.214 606.914,194.481 605.9,194.977" fill="#4AB2BC"/>
    <path d="M609.229,218.459 L602.488,205.188 C601.367,202.98 601.433,200.48 602.45,198.418 L602.488,198.342 C602.984,197.367 603.661,196.546 604.457,195.899 C604.47,195.889 604.482,195.878 604.495,195.869 C604.5,195.864 604.506,195.859 604.512,195.855 C604.516,195.852 604.519,195.849 604.522,195.846 C604.533,195.839 604.543,195.83 604.553,195.822 C604.553,195.822 604.554,195.822 604.554,195.822 C604.937,195.521 605.355,195.253 605.805,195.024 C605.837,195.008 605.869,194.992 605.901,194.977 C606.914,194.481 608.032,194.214 609.169,194.204 C609.187,194.203 609.205,194.203 609.223,194.203 C610.361,194.203 611.481,194.461 612.499,194.948 C612.551,194.973 612.602,194.998 612.653,195.024 C613.146,195.275 613.601,195.573 614.014,195.909 C614.014,195.91 614.015,195.91 614.016,195.911 C614.027,195.92 614.037,195.928 614.048,195.938 C614.052,195.941 614.056,195.944 614.059,195.947 C614.066,195.952 614.072,195.958 614.079,195.963 C614.086,195.969 614.092,195.974 614.099,195.98 C614.1,195.981 614.101,195.982 614.102,195.982 C614.855,196.616 615.496,197.409 615.969,198.342 L616.019,198.439 C617.025,200.498 617.087,202.988 615.969,205.188 L609.229,218.459" fill="#4AB2BC"/>
    <path d="M630.594,260.523 L587.864,260.523 L595.543,245.403 L622.915,245.403 L630.594,260.523" fill="#FFDC00"/>
    <path d="M587.864,260.523 L583.237,260.523 C579.062,260.523 575.677,257.138 575.677,252.963 C575.677,248.788 579.062,245.403 583.237,245.403 L595.543,245.403 L587.864,260.523" fill="#4AB2BC"/>
    <path d="M656.245,267.535 L656.245,201.763 C656.245,197.588 659.63,194.203 663.805,194.203 C667.98,194.203 671.365,197.588 671.365,201.763 L671.365,259.975 L663.805,259.975 C659.63,259.975 656.245,263.36 656.245,267.535" fill="#5CAC35"/>
    <path d="M702.739,275.095 L663.805,275.095 C659.63,275.095 656.245,271.71 656.245,267.535 C656.245,271.71 659.63,275.095 663.805,275.095 C667.98,275.095 671.365,271.71 671.365,267.535 L671.365,259.975 L702.739,259.975 C706.914,259.975 710.299,263.36 710.299,267.535 C710.299,271.71 706.914,275.095 702.739,275.095" fill="#D1080D"/>
    <path d="M429.114,365.994 C424.939,365.994 421.554,362.609 421.554,358.434 L421.554,292.662 C421.554,288.487 424.939,285.102 429.114,285.102 C433.289,285.102 436.674,288.487 436.674,292.662 L436.674,358.434 C436.674,362.609 433.289,365.994 429.114,365.994" fill="#4AB2BC"/>
    <path d="M461.926,300.222 L436.674,300.222 L436.674,292.662 C436.674,288.487 433.29,285.102 429.114,285.102 L460.764,285.102 C457.14,285.661 454.366,288.794 454.366,292.574 C454.366,296.749 457.75,300.134 461.926,300.134 C462.208,300.134 462.486,300.148 462.76,300.177 C462.486,300.207 462.208,300.222 461.926,300.222" fill="#D1080D"/>
    <path d="M436.674,300.222 L429.114,300.222 C424.939,300.222 421.554,296.837 421.554,292.662 C421.554,288.487 424.939,285.102 429.114,285.102 C433.289,285.102 436.674,288.487 436.674,292.662 L436.674,300.222" fill="#D1080D"/>
    <path d="M465.686,365.994 L429.114,365.994 C424.938,365.994 421.554,362.609 421.554,358.434 C421.554,362.609 424.938,365.994 429.114,365.994 C433.289,365.994 436.674,362.609 436.674,358.434 L436.674,350.874 L465.686,350.874 C461.511,350.874 458.127,354.259 458.127,358.434 C458.127,362.609 461.511,365.994 465.686,365.994" fill="#5CAC35"/>
    <path d="M429.114,365.994 C424.939,365.994 421.554,362.609 421.554,358.434 C421.554,354.259 424.939,350.874 429.114,350.874 L436.674,350.874 L436.674,358.434 C436.674,362.609 433.289,365.994 429.114,365.994" fill="#5CAC35"/>
    <path d="M480.906,321.366 C476.694,318.107 471.412,316.165 465.684,316.165 L461.926,316.166 L461.926,316.166 C466.346,316.166 469.942,312.57 469.942,308.15 C469.942,304.012 466.79,300.596 462.76,300.177 C466.543,299.762 469.486,296.556 469.486,292.662 C469.486,288.487 466.101,285.102 461.926,285.102 L460.764,285.102 C461.143,285.044 461.531,285.013 461.926,285.013 C474.683,285.013 485.062,295.392 485.062,308.15 C485.062,313.06 483.525,317.617 480.906,321.366" fill="#2564A0"/>
    <path d="M462.76,300.177 C462.485,300.149 462.207,300.134 461.925,300.134 C457.75,300.134 454.365,296.75 454.365,292.574 C454.365,288.794 457.14,285.662 460.763,285.103 L461.925,285.103 C466.1,285.103 469.485,288.488 469.485,292.663 C469.485,296.556 466.542,299.762 462.76,300.177" fill="#D1080D"/>
    <path d="M465.686,365.994 L465.686,365.994 C469.862,365.994 473.247,362.61 473.247,358.434 C473.247,354.259 469.862,350.874 465.686,350.874 C471.088,350.874 475.482,346.481 475.482,341.08 C475.482,335.679 471.088,331.285 465.686,331.285 L461.932,331.287 L461.929,331.287 C461.93,331.287 461.931,331.287 461.932,331.287 C469.776,331.285 476.722,327.357 480.906,321.367 C486.8,325.928 490.601,333.068 490.601,341.08 C490.601,354.818 479.425,365.994 465.686,365.994" fill="#BF967D"/>
    <path d="M465.687,365.994 L465.687,365.994 C461.512,365.994 458.127,362.609 458.127,358.434 C458.127,354.259 461.512,350.874 465.687,350.874 C469.862,350.874 473.247,354.259 473.247,358.434 C473.247,362.609 469.862,365.994 465.687,365.994" fill="#BF967D"/>
    <path d="M461.932,331.287 C466.106,331.285 469.489,327.901 469.489,323.727 C469.489,319.551 466.104,316.166 461.929,316.166 L461.926,316.166 L465.684,316.165 C471.411,316.165 476.693,318.107 480.906,321.367 C476.722,327.357 469.777,331.284 461.932,331.287" fill="#1262A1"/>
    <path d="M461.928,331.287 L436.673,331.287 L436.673,316.167 L461.925,316.167 C457.75,316.167 454.365,319.552 454.365,323.727 C454.365,327.902 457.75,331.287 461.925,331.287 C461.926,331.287 461.927,331.287 461.927,331.287 C461.928,331.287 461.928,331.287 461.928,331.287" fill="#FFDC00"/>
    <path d="M436.674,331.287 L429.114,331.287 C424.939,331.287 421.554,327.902 421.554,323.727 C421.554,319.552 424.939,316.167 429.114,316.167 L436.674,316.167 L436.674,331.287" fill="#4AB2BC"/>
    <path d="M461.925,331.287 C457.75,331.287 454.365,327.902 454.365,323.727 C454.365,319.552 457.75,316.167 461.925,316.167 L461.926,316.167 C457.75,316.169 454.367,319.555 454.369,323.73 C454.371,327.904 457.754,331.287 461.928,331.287 C461.927,331.287 461.926,331.287 461.925,331.287" fill="#6D2927"/>
    <path d="M461.929,331.287 L461.929,331.287 C461.929,331.287 461.928,331.287 461.928,331.287 C461.93,331.287 461.931,331.287 461.933,331.287 C461.932,331.287 461.93,331.287 461.929,331.287" fill="#D43920"/>
    <path d="M461.928,331.287 C457.754,331.287 454.371,327.904 454.369,323.73 C454.367,319.555 457.75,316.169 461.926,316.167 L461.929,316.167 C466.104,316.167 469.489,319.552 469.489,323.727 C469.489,327.901 466.106,331.285 461.932,331.287 C461.931,331.287 461.929,331.287 461.928,331.287" fill="#1262A1"/>
    <path d="M504.548,365.994 C500.373,365.994 496.988,362.609 496.988,358.434 L496.988,292.662 C496.988,288.487 500.373,285.102 504.548,285.102 C508.724,285.102 512.108,288.487 512.108,292.662 L512.108,358.434 C512.108,362.609 508.724,365.994 504.548,365.994" fill="#4AB2BC"/>
    <path d="M526.893,365.995 C522.718,365.995 519.333,362.61 519.333,358.435 L519.333,340.813 C519.342,342.782 520.116,344.745 521.645,346.22 C523.112,347.635 525.004,348.339 526.892,348.339 C528.873,348.339 530.851,347.565 532.335,346.026 L534.453,343.829 L534.453,358.435 C534.453,362.61 531.069,365.995 526.893,365.995 M519.333,340.739 L519.333,292.663 C519.333,288.488 522.718,285.103 526.893,285.103 C531.069,285.103 534.453,288.488 534.453,292.663 L534.453,322.047 L521.451,335.53 C520.046,336.988 519.343,338.863 519.333,340.739" fill="#2564A0"/>
    <path d="M534.452,343.829 L534.452,322.047 L567.847,287.415 C569.331,285.876 571.309,285.103 573.29,285.103 C575.178,285.103 577.07,285.806 578.536,287.221 C581.542,290.119 581.629,294.905 578.731,297.911 L556.721,320.736 L552.461,315.545 C550.966,313.723 548.799,312.78 546.613,312.78 C544.926,312.78 543.228,313.342 541.821,314.496 C538.594,317.145 538.124,321.908 540.773,325.136 L546.154,331.694 L534.452,343.829 M519.333,340.813 C519.333,340.788 519.333,340.764 519.333,340.739 L519.333,340.813" fill="#4AB2BC"/>
    <path d="M526.892,348.338 C525.004,348.338 523.112,347.634 521.645,346.219 C520.116,344.745 519.342,342.781 519.333,340.812 L519.333,340.739 C519.343,338.863 520.046,336.987 521.451,335.53 L534.453,322.046 L534.453,343.829 L532.335,346.025 C530.851,347.564 528.873,348.338 526.892,348.338" fill="#4AB2BC"/>
    <path d="M577.884,365.995 C575.699,365.995 573.53,365.052 572.036,363.23 L546.155,331.693 L556.722,320.735 L583.724,353.638 C586.373,356.866 585.903,361.63 582.675,364.279 C581.269,365.433 579.572,365.995 577.884,365.995" fill="#FFDC00"/>
    <path d="M546.155,331.694 L540.774,325.136 C538.125,321.909 538.594,317.145 541.822,314.496 C543.228,313.342 544.926,312.78 546.613,312.78 C548.799,312.78 550.967,313.723 552.461,315.545 L556.721,320.736 L546.155,331.694" fill="#4AB2BC"/>
    <path d="M599.426,365.995 C595.249,365.995 591.866,362.61 591.866,358.435 L591.866,292.663 C591.866,288.488 595.249,285.103 599.426,285.103 C603.599,285.103 606.986,288.488 606.986,292.663 L606.986,358.435 C606.986,362.61 603.599,365.995 599.426,365.995" fill="#1262A1"/>
    <path d="M643.273,300.223 L606.985,300.223 L606.985,292.663 C606.985,288.488 603.599,285.103 599.425,285.103 L643.273,285.103 C647.447,285.103 650.833,288.488 650.833,292.663 C650.833,296.838 647.447,300.223 643.273,300.223" fill="#D1080D"/>
    <path d="M606.986,300.223 L599.426,300.223 C595.249,300.223 591.866,296.838 591.866,292.663 C591.866,288.488 595.249,285.103 599.426,285.103 C603.599,285.103 606.986,288.488 606.986,292.663 L606.986,300.223" fill="#D1080D"/>
    <path d="M643.274,365.995 L599.426,365.995 C595.249,365.995 591.866,362.61 591.866,358.435 C591.866,362.61 595.249,365.995 599.426,365.995 C603.599,365.995 606.986,362.61 606.986,358.435 L606.986,350.875 L643.274,350.875 C647.447,350.875 650.834,354.26 650.834,358.435 C650.834,362.61 647.447,365.995 643.274,365.995" fill="#BF967D"/>
    <path d="M599.426,365.995 C595.249,365.995 591.866,362.61 591.866,358.435 C591.866,354.26 595.249,350.875 599.426,350.875 L606.986,350.875 L606.986,358.435 C606.986,362.61 603.599,365.995 599.426,365.995" fill="#BF967D"/>
    <path d="M636.848,333.109 L606.986,333.109 L606.986,317.989 L636.848,317.989 C641.021,317.989 644.408,321.374 644.408,325.549 C644.408,329.724 641.021,333.109 636.848,333.109" fill="#5DBEC7"/>
    <path d="M606.986,333.109 L599.426,333.109 C595.249,333.109 591.866,329.724 591.866,325.549 C591.866,321.374 595.249,317.989 599.426,317.989 L606.986,317.989 L606.986,333.109" fill="#1262A1"/>
    <path d="M504.708,457.076 C500.533,457.076 497.148,453.691 497.148,449.516 L497.148,391.304 L512.268,391.304 L512.268,449.516 C512.268,453.691 508.883,457.076 504.708,457.076" fill="#1262A1"/>
    <path d="M532.304,391.304 L512.268,391.304 L512.268,383.744 C512.268,379.569 508.884,376.184 504.708,376.184 L532.304,376.184 C536.477,376.184 539.864,379.569 539.864,383.744 C539.864,387.92 536.477,391.304 532.304,391.304 M497.148,391.304 L477.114,391.304 C472.939,391.304 469.554,387.92 469.554,383.744 C469.554,379.569 472.939,376.184 477.114,376.184 L504.708,376.184 C500.533,376.184 497.148,379.569 497.148,383.744 L497.148,391.304" fill="#BF967D"/>
    <path d="M512.268,391.304 L497.148,391.304 L497.148,383.744 C497.148,379.569 500.533,376.184 504.708,376.184 C508.883,376.184 512.268,379.569 512.268,383.744 L512.268,391.304" fill="#1262A1"/>
    <path d="M553.093,414.244 C553.093,410.069 549.71,406.684 545.533,406.684 C541.356,406.684 537.973,410.069 537.973,414.244 C537.973,390.627 557.187,371.412 580.804,371.412 C576.631,371.412 573.244,374.797 573.244,378.972 C573.244,383.147 576.631,386.532 580.804,386.532 C565.525,386.532 553.093,398.963 553.093,414.244" fill="#D1080D"/>
    <path d="M580.805,457.077 C557.187,457.077 537.973,437.862 537.973,414.244 C537.973,418.419 541.357,421.805 545.533,421.805 C549.71,421.805 553.093,418.419 553.093,414.244 C553.093,429.525 565.526,441.956 580.805,441.956 C576.631,441.956 573.245,445.341 573.245,449.516 C573.245,453.691 576.631,457.077 580.805,457.077" fill="#4AB2BC"/>
    <path d="M545.533,421.804 C541.356,421.804 537.973,418.419 537.973,414.244 C537.973,410.069 541.356,406.684 545.533,406.684 C549.71,406.684 553.093,410.069 553.093,414.244 C553.093,418.419 549.71,421.804 545.533,421.804" fill="#D1080D"/>
    <path d="M580.805,457.077 L580.805,457.077 C584.981,457.077 588.365,453.691 588.365,449.516 C588.365,445.341 584.981,441.956 580.805,441.956 C596.087,441.956 608.519,429.525 608.519,414.244 C608.519,418.419 611.903,421.805 616.08,421.805 C620.253,421.805 623.64,418.419 623.64,414.244 C623.64,437.862 604.422,457.077 580.805,457.077" fill="#FFDC00"/>
    <path d="M580.804,457.076 L580.804,457.076 C576.631,457.076 573.244,453.691 573.244,449.516 C573.244,445.341 576.631,441.956 580.804,441.956 C584.981,441.956 588.364,445.341 588.364,449.516 C588.364,453.691 584.981,457.076 580.804,457.076" fill="#4AB2BC"/>
    <path d="M623.639,414.244 C623.639,410.069 620.252,406.684 616.079,406.684 C611.902,406.684 608.519,410.069 608.519,414.244 C608.519,398.963 596.087,386.532 580.804,386.532 C584.981,386.532 588.364,383.147 588.364,378.972 C588.364,374.797 584.981,371.412 580.804,371.412 C604.422,371.412 623.639,390.627 623.639,414.244" fill="#5CAC35"/>
    <path d="M580.804,386.532 C576.631,386.532 573.244,383.147 573.244,378.972 C573.244,374.797 576.631,371.412 580.804,371.412 C584.981,371.412 588.364,374.797 588.364,378.972 C588.364,383.147 584.981,386.532 580.804,386.532" fill="#5CAC35"/>
    <path d="M616.079,421.804 C611.902,421.804 608.519,418.419 608.519,414.244 C608.519,410.069 611.902,406.684 616.079,406.684 C620.252,406.684 623.639,410.069 623.639,414.244 C623.639,418.419 620.252,421.804 616.079,421.804" fill="#FFDC00"/>
    <path d="M645.579,424.953 C645.579,420.778 642.196,417.393 638.019,417.393 C633.846,417.393 630.459,420.778 630.459,424.953 L630.459,382.491 C630.459,378.316 633.846,374.931 638.019,374.931 C642.196,374.931 645.579,378.316 645.579,382.491 L645.579,424.953" fill="#D1080D"/>
    <path d="M700.751,424.953 C700.751,420.778 697.368,417.393 693.191,417.393 C689.018,417.393 685.631,420.778 685.631,424.953 L685.631,382.491 C685.631,378.316 689.018,374.931 693.191,374.931 C697.368,374.931 700.751,378.316 700.751,382.491 L700.751,424.953" fill="#2564A0"/>
    <path d="M665.556,457.076 C646.531,457.076 630.459,442.365 630.459,424.953 C630.459,429.128 633.845,432.513 638.019,432.513 C642.195,432.513 645.579,429.128 645.579,424.953 C645.579,434.011 654.915,441.956 665.556,441.956 C670.708,441.956 675.902,440.01 679.803,436.616 C683.564,433.348 685.631,429.206 685.631,424.953 C685.631,429.128 689.018,432.513 693.191,432.513 C697.368,432.513 700.751,429.128 700.751,424.953 C700.751,442.365 684.633,457.076 665.556,457.076" fill="#5CAC35"/>
    <path d="M638.019,432.513 C633.846,432.513 630.459,429.128 630.459,424.953 C630.459,420.778 633.846,417.393 638.019,417.393 C642.196,417.393 645.579,420.778 645.579,424.953 C645.579,429.128 642.196,432.513 638.019,432.513" fill="#D1080D"/>
    <path d="M693.191,432.513 C689.018,432.513 685.631,429.128 685.631,424.953 C685.631,420.778 689.018,417.393 693.191,417.393 C697.368,417.393 700.751,420.778 700.751,424.953 C700.751,429.128 697.368,432.513 693.191,432.513" fill="#5CAC35"/>
    <path d="M844.392,432.362 C844.392,428.187 841.007,424.803 836.832,424.803 C832.656,424.803 829.271,428.187 829.271,432.362 C829.271,430.383 829.271,425.128 810.457,421.198 C810.97,421.303 811.482,421.354 811.986,421.354 C815.467,421.354 818.6,418.934 819.367,415.394 C820.252,411.314 817.661,407.288 813.581,406.404 C813.574,406.403 813.569,406.401 813.563,406.4 C822.741,408.318 829.284,410.739 834.15,414.016 C842.615,419.715 844.392,427.138 844.392,432.362" fill="#5CAC35"/>
    <path d="M813.885,457.061 C813.863,457.061 813.841,457.06 813.819,457.059 C813.841,457.06 813.863,457.06 813.885,457.061 M813.819,457.059 C801.974,456.756 793.425,452.048 787.768,448.932 C786.852,448.428 785.987,447.952 785.214,447.552 C781.506,445.633 780.055,441.072 781.973,437.363 C783.317,434.765 785.958,433.275 788.694,433.275 C789.863,433.275 791.05,433.547 792.161,434.122 C793.109,434.612 794.057,435.135 795.062,435.687 C800.202,438.518 806.027,441.726 814.174,441.944 C814.109,441.942 814.046,441.941 813.982,441.941 C809.916,441.941 806.561,445.21 806.456,449.308 C806.349,453.482 809.646,456.952 813.819,457.059" fill="#BF967D"/>
    <path d="M815.094,457.076 C814.696,457.076 814.293,457.071 813.885,457.061 C813.929,457.062 813.972,457.062 814.016,457.062 C818.101,457.062 821.465,453.804 821.57,449.696 C821.677,445.522 818.38,442.052 814.206,441.944 C814.507,441.952 814.805,441.956 815.098,441.956 C820.376,441.956 824.41,440.73 826.814,438.387 C828.845,436.408 829.271,434.018 829.271,432.362 C829.271,436.537 832.656,439.922 836.831,439.922 C841.006,439.922 844.391,436.537 844.391,432.362 C844.391,438.816 841.897,444.8 837.368,449.214 C833.648,452.841 826.795,457.076 815.094,457.076 M814.206,441.944 C814.195,441.944 814.184,441.944 814.173,441.944 C814.184,441.944 814.195,441.944 814.206,441.944" fill="#1262A1"/>
    <path d="M836.831,439.922 C832.656,439.922 829.271,436.537 829.271,432.362 C829.271,428.187 832.656,424.802 836.831,424.802 C841.006,424.802 844.391,428.187 844.391,432.362 C844.391,436.537 841.006,439.922 836.831,439.922" fill="#1262A1"/>
    <path d="M814.017,457.062 C813.973,457.062 813.929,457.062 813.885,457.061 C813.863,457.06 813.841,457.06 813.819,457.059 C809.646,456.952 806.349,453.482 806.456,449.308 C806.561,445.21 809.916,441.942 813.982,441.942 C814.046,441.942 814.109,441.942 814.174,441.944 C814.185,441.944 814.196,441.945 814.207,441.945 C818.381,442.052 821.677,445.522 821.571,449.696 C821.465,453.804 818.102,457.062 814.017,457.062" fill="#BF967D"/>
    <path d="M810.457,421.197 C810.431,421.192 810.404,421.186 810.377,421.18 C803.38,419.664 798.203,417.727 794.082,415.085 C785.307,409.459 783.619,401.968 783.748,396.675 C783.935,389 786.422,382.935 791.141,378.65 C795.898,374.328 802.7,372.147 811.394,372.147 C812.712,372.147 814.073,372.197 815.477,372.297 C815.303,372.285 815.129,372.28 814.957,372.28 C811.025,372.28 807.715,375.319 807.429,379.298 C807.13,383.461 810.26,387.077 814.421,387.38 C813.321,387.301 812.276,387.262 811.287,387.262 C806.601,387.262 803.182,388.139 801.307,389.842 C800.733,390.363 798.987,391.948 798.863,397.043 C798.826,398.56 798.716,403.177 813.563,406.4 C813.55,406.397 813.536,406.394 813.523,406.392 C813.002,406.282 812.482,406.23 811.97,406.23 C808.466,406.23 805.322,408.682 804.578,412.247 C803.725,416.335 806.347,420.34 810.434,421.193 C810.442,421.194 810.45,421.195 810.457,421.197" fill="#4AB2BC"/>
    <path d="M811.986,421.354 C811.481,421.354 810.97,421.303 810.457,421.198 C810.449,421.196 810.442,421.194 810.434,421.193 C806.347,420.34 803.725,416.335 804.578,412.248 C805.322,408.682 808.466,406.23 811.969,406.23 C812.482,406.23 813.001,406.282 813.522,406.392 C813.536,406.394 813.549,406.397 813.562,406.4 C813.569,406.401 813.574,406.402 813.58,406.404 C817.66,407.288 820.251,411.314 819.366,415.394 C818.599,418.934 815.467,421.354 811.986,421.354" fill="#5CAC35"/>
    <path d="M833.04,393.394 C831.87,393.394 830.684,393.122 829.573,392.547 C823.496,389.404 818.401,387.666 814.427,387.38 C814.425,387.38 814.423,387.38 814.421,387.38 C814.423,387.38 814.425,387.38 814.427,387.38 C814.611,387.394 814.793,387.4 814.975,387.4 C818.906,387.4 822.223,384.363 822.51,380.382 C822.809,376.217 819.675,372.598 815.51,372.3 C815.499,372.299 815.488,372.298 815.477,372.297 C815.488,372.298 815.5,372.299 815.511,372.3 C821.628,372.739 828.5,374.969 836.519,379.118 C840.228,381.036 841.679,385.597 839.761,389.306 C838.417,391.904 835.776,393.394 833.04,393.394" fill="#D1080D"/>
    <path d="M814.975,387.4 C814.793,387.4 814.611,387.394 814.427,387.381 C814.425,387.381 814.423,387.381 814.421,387.38 C810.259,387.077 807.129,383.461 807.428,379.298 C807.714,375.319 811.024,372.28 814.957,372.28 C815.129,372.28 815.302,372.285 815.476,372.297 C815.488,372.298 815.499,372.299 815.51,372.3 C819.675,372.598 822.809,376.217 822.509,380.382 C822.223,384.363 818.906,387.4 814.975,387.4" fill="#4AB2BC"/>
    <path d="M715.59,455.463 C711.415,455.463 708.03,452.078 708.03,447.903 L708.03,382.131 C708.03,377.955 711.415,374.571 715.59,374.571 C711.415,374.571 708.03,377.955 708.03,382.131 C708.03,386.306 711.415,389.691 715.59,389.691 L723.15,389.691 L723.15,413.026 L715.59,413.026 C711.415,413.026 708.03,416.41 708.03,420.585 C708.03,424.761 711.415,428.146 715.59,428.146 L723.15,428.146 L723.15,447.903 C723.15,452.078 719.765,455.463 715.59,455.463" fill="#D1080D"/>
    <path d="M741.647,428.145 L723.151,428.145 L723.151,413.025 L745.265,413.025 C744.39,413.035 743.512,413.197 742.674,413.515 C742.673,413.516 742.672,413.516 742.671,413.516 C742.643,413.527 742.615,413.538 742.588,413.549 C742.584,413.55 742.582,413.551 742.579,413.552 C742.569,413.556 742.559,413.56 742.549,413.564 C742.543,413.567 742.537,413.569 742.53,413.572 C742.524,413.574 742.518,413.577 742.512,413.579 C742.504,413.582 742.496,413.586 742.488,413.589 C742.484,413.59 742.48,413.592 742.475,413.594 C742.466,413.598 742.457,413.601 742.448,413.605 C742.446,413.606 742.445,413.607 742.443,413.608 C741.773,413.888 741.15,414.263 740.594,414.715 C739.678,415.458 738.979,416.374 738.509,417.38 C738.505,417.388 738.502,417.396 738.498,417.404 C738.498,417.404 738.498,417.404 738.498,417.405 C738.123,418.212 737.886,419.098 737.819,420.03 C737.818,420.031 737.818,420.032 737.818,420.033 C737.818,420.042 737.817,420.051 737.816,420.06 C737.729,421.315 737.952,422.595 738.502,423.775 C738.503,423.776 738.504,423.778 738.505,423.78 C738.507,423.785 738.51,423.79 738.512,423.795 C738.758,424.319 739.063,424.811 739.417,425.26 L741.647,428.145" fill="#FFDC00"/>
    <path d="M723.15,428.145 L715.59,428.145 C711.415,428.145 708.03,424.76 708.03,420.585 C708.03,416.41 711.415,413.025 715.59,413.025 L723.15,413.025 L723.15,428.145" fill="#D1080D"/>
    <path d="M747.248,389.691 L723.151,389.691 L723.151,382.131 C723.151,377.955 719.766,374.571 715.591,374.571 L747.248,374.571 C743.073,374.571 739.688,377.955 739.688,382.131 C739.688,386.306 743.073,389.691 747.248,389.691" fill="#BF967D"/>
    <path d="M723.15,389.691 L715.59,389.691 C711.415,389.691 708.03,386.306 708.03,382.131 C708.03,377.955 711.415,374.571 715.59,374.571 C719.765,374.571 723.15,377.955 723.15,382.131 L723.15,389.691" fill="#D1080D"/>
    <path d="M766.48,455.463 C764.219,455.463 761.983,454.453 760.494,452.526 L741.646,428.145 L747.248,428.145 C751.362,428.145 755.263,427.213 758.749,425.548 L772.456,443.279 C775.01,446.582 774.401,451.33 771.098,453.884 C769.722,454.948 768.095,455.463 766.48,455.463" fill="#4AB2BC"/>
    <path d="M745.358,428.145 L741.647,428.145 L739.417,425.26 C740.801,427.017 742.948,428.145 745.358,428.145 M738.511,423.795 C738.509,423.79 738.507,423.785 738.504,423.78 C738.507,423.785 738.509,423.79 738.511,423.795 M738.502,423.775 C737.952,422.595 737.728,421.315 737.816,420.06 C737.804,420.234 737.798,420.408 737.798,420.585 C737.798,421.725 738.05,422.805 738.502,423.775 M737.818,420.033 C737.818,420.032 737.818,420.031 737.818,420.03 C737.818,420.031 737.818,420.032 737.818,420.033 M738.497,417.405 C738.497,417.404 738.497,417.404 738.498,417.404 C738.497,417.404 738.497,417.404 738.497,417.405 M738.509,417.38 C738.978,416.374 739.677,415.458 740.594,414.715 C739.713,415.431 738.996,416.34 738.509,417.38 M742.443,413.608 C742.444,413.607 742.446,413.606 742.447,413.605 C742.446,413.606 742.444,413.607 742.443,413.608 M742.475,413.594 C742.479,413.592 742.483,413.591 742.488,413.589 C742.483,413.591 742.479,413.592 742.475,413.594 M742.511,413.579 C742.517,413.577 742.524,413.574 742.53,413.572 C742.524,413.574 742.517,413.577 742.511,413.579 M742.548,413.564 C742.559,413.56 742.568,413.556 742.578,413.552 C742.568,413.556 742.558,413.56 742.548,413.564 M742.587,413.549 C742.615,413.538 742.643,413.527 742.671,413.516 C742.643,413.527 742.615,413.538 742.587,413.549" fill="#4AB2BC"/>
    <path d="M745.439,413.025 L745.265,413.025 C745.295,413.025 745.324,413.025 745.353,413.025 C745.382,413.025 745.41,413.025 745.439,413.025" fill="#DA5120"/>
    <path d="M742.674,413.516 C743.512,413.197 744.39,413.036 745.265,413.026 L745.358,413.026 C744.413,413.026 743.508,413.199 742.674,413.516" fill="#61472B"/>
    <path d="M758.749,425.548 L751.389,416.027 C751.296,415.902 751.198,415.781 751.096,415.663 C750.38,414.826 749.516,414.182 748.572,413.74 C747.733,413.346 746.81,413.101 745.838,413.04 C745.705,413.031 745.571,413.026 745.438,413.025 L747.247,413.025 C753.681,413.025 758.914,407.791 758.914,401.358 C758.914,394.924 753.681,389.691 747.247,389.691 C751.423,389.691 754.808,386.306 754.808,382.13 C754.808,377.955 751.423,374.57 747.247,374.57 C762.018,374.57 774.034,386.587 774.034,401.358 C774.034,412.014 767.78,421.237 758.749,425.548" fill="#2564A0"/>
    <path d="M751.39,416.027 L751.339,415.962 C751.26,415.86 751.18,415.76 751.097,415.664 C751.198,415.782 751.296,415.903 751.39,416.027 M748.572,413.741 C747.709,413.336 746.78,413.101 745.838,413.04 C746.811,413.102 747.734,413.346 748.572,413.741" fill="#196033"/>
    <path d="M747.248,389.691 L747.248,389.691 C743.073,389.691 739.688,386.306 739.688,382.131 C739.688,377.955 743.073,374.571 747.248,374.571 C751.423,374.571 754.808,377.955 754.808,382.131 C754.808,386.306 751.423,389.691 747.248,389.691" fill="#BF967D"/>
    <path d="M739.416,425.261 C739.062,424.812 738.757,424.32 738.511,423.796 C738.742,424.288 739.03,424.762 739.376,425.21 L739.416,425.261 M738.504,423.781 C738.503,423.779 738.502,423.777 738.502,423.776 C738.502,423.777 738.503,423.779 738.504,423.781 M737.816,420.061 C737.816,420.052 737.817,420.043 737.817,420.034 C737.817,420.043 737.816,420.052 737.816,420.061 M737.818,420.031 C737.885,419.099 738.122,418.213 738.497,417.405 C738.113,418.236 737.885,419.126 737.818,420.031 M738.497,417.405 C738.501,417.397 738.505,417.389 738.508,417.381 C738.505,417.389 738.501,417.397 738.497,417.405 M740.593,414.716 C741.149,414.264 741.772,413.889 742.442,413.608 C741.845,413.858 741.27,414.19 740.734,414.604 C740.686,414.641 740.64,414.678 740.593,414.716 M742.447,413.606 C742.456,413.602 742.465,413.599 742.474,413.595 C742.465,413.599 742.456,413.602 742.447,413.606 M742.487,413.59 C742.495,413.587 742.503,413.583 742.511,413.58 C742.503,413.583 742.495,413.587 742.487,413.59 M742.53,413.573 C742.536,413.57 742.542,413.568 742.548,413.565 C742.542,413.567 742.536,413.57 742.53,413.573 M742.578,413.553 C742.581,413.552 742.584,413.551 742.587,413.549 C742.584,413.551 742.581,413.552 742.578,413.553 M742.671,413.517 C742.671,413.517 742.672,413.517 742.673,413.516 C742.672,413.517 742.671,413.517 742.671,413.517" fill="#196033"/>
    <path d="M747.248,428.145 L745.358,428.145 C749.534,428.145 752.918,424.76 752.918,420.585 C752.918,418.873 752.349,417.294 751.39,416.027 L758.75,425.548 C755.263,427.212 751.363,428.145 747.248,428.145 M751.097,415.663 C750.404,414.857 749.545,414.198 748.572,413.74 C749.516,414.182 750.38,414.826 751.097,415.663 M745.838,413.04 C745.679,413.03 745.52,413.025 745.358,413.025 L745.439,413.025 C745.572,413.026 745.705,413.031 745.838,413.04" fill="#4AB2BC"/>
    <path d="M745.358,428.145 L745.358,428.145 C742.948,428.145 740.801,427.017 739.417,425.26 L739.377,425.209 C739.031,424.761 738.743,424.287 738.512,423.795 C738.509,423.79 738.507,423.785 738.504,423.78 C738.504,423.778 738.503,423.776 738.502,423.775 C738.05,422.805 737.798,421.725 737.798,420.585 C737.798,420.408 737.804,420.234 737.816,420.06 C737.817,420.051 737.817,420.042 737.818,420.033 C737.818,420.032 737.818,420.031 737.818,420.03 C737.885,419.126 738.114,418.235 738.498,417.405 C738.498,417.404 738.498,417.404 738.498,417.404 C738.501,417.396 738.505,417.388 738.509,417.38 C738.996,416.34 739.713,415.431 740.594,414.715 C740.64,414.677 740.687,414.64 740.734,414.604 C741.271,414.189 741.846,413.857 742.443,413.608 C742.444,413.607 742.446,413.606 742.447,413.605 C742.457,413.601 742.466,413.598 742.475,413.594 C742.48,413.592 742.484,413.59 742.488,413.589 C742.496,413.586 742.503,413.582 742.511,413.579 C742.518,413.577 742.524,413.574 742.53,413.572 C742.536,413.569 742.543,413.566 742.549,413.564 C742.559,413.56 742.569,413.556 742.579,413.552 C742.582,413.551 742.584,413.55 742.587,413.549 C742.615,413.538 742.643,413.527 742.671,413.516 C742.672,413.516 742.673,413.516 742.674,413.515 C743.508,413.198 744.413,413.025 745.358,413.025 C745.519,413.025 745.679,413.03 745.838,413.04 C746.78,413.1 747.709,413.336 748.572,413.74 C749.545,414.198 750.404,414.857 751.097,415.663 C751.18,415.76 751.26,415.859 751.339,415.961 L751.39,416.027 C752.349,417.294 752.918,418.873 752.918,420.585 C752.918,424.76 749.533,428.145 745.358,428.145" fill="#4AB2BC"/>
    <path d="M401.707,313.363 C382.489,340.712 344.695,347.142 317.294,327.721 L317.294,327.721 C289.894,308.301 283.262,270.386 302.48,243.037 L302.48,243.037 L293.801,236.886 C271.22,269.02 279.012,313.568 311.206,336.385 L311.206,336.385 C343.402,359.204 387.805,351.649 410.386,319.514 L410.386,319.514 z" fill="#BF967D"/>
    <path d="M390.117,315.423 C369.031,336.451 334.996,336.514 314.097,315.56 L314.097,315.56 C293.2,294.607 293.355,260.575 314.442,239.547 L314.442,239.547 L307.822,232.91 C283.046,257.618 282.865,297.604 307.418,322.222 L307.418,322.222 C331.972,346.841 371.961,346.767 396.737,322.06 L396.737,322.06 z" fill="#4AB2BC"/>
    <path d="M352.656,194.853 C307.052,194.935 269.916,231.969 269.71,277.569 L269.71,277.569 L282.003,277.546 C282.18,238.74 313.786,207.217 352.599,207.146 L352.599,207.146 C391.413,207.077 422.736,238.483 422.56,277.291 L422.56,277.291 L434.854,277.27 C435.06,231.669 398.259,194.77 352.656,194.853" fill="#5CAC35"/>
    <path d="M351.938,352.693 C310.402,352.768 276.88,319.158 277.066,277.624 L277.066,277.624 C277.255,236.089 311.083,202.357 352.619,202.281 L352.619,202.281 L352.68,189.125 C303.873,189.214 264.13,228.847 263.909,277.647 L263.909,277.647 C263.687,326.45 303.074,365.939 351.88,365.85 L351.88,365.85 z" fill="#FFDC00"/>
    <path d="M307.872,192.385 C260.711,217.207 242.362,275.432 266.889,322.432 L266.889,322.432 L279.604,315.739 C258.729,275.737 274.345,226.183 314.486,205.057 L314.486,205.057 C354.624,183.93 404.084,199.232 424.958,239.234 L424.958,239.234 L437.674,232.542 C413.147,185.542 355.034,167.562 307.872,192.385" fill="#2564A0"/>
    <path d="M395.3,234.586 C371.754,210.978 333.408,211.049 309.649,234.742 L309.649,234.742 L325.765,250.901 C340.544,236.164 364.392,236.121 379.037,250.804 L379.037,250.804 z" fill="url(#Gradient_1)"/>
    <path d="M352.49,231.322 C326.991,231.368 306.228,252.074 306.113,277.57 L306.113,277.57 L323.565,277.539 C323.638,261.679 336.552,248.802 352.41,248.774 L352.41,248.774 C368.271,248.744 381.068,261.576 380.996,277.435 L380.996,277.435 L398.45,277.403 C398.565,251.906 377.989,231.275 352.49,231.322" fill="#2564A0"/>
    <path d="M395.042,234.586 C371.496,210.978 333.15,211.048 309.391,234.741 L309.391,234.741 L319.524,244.902 C327.916,236.532 339.482,231.344 352.232,231.321 L352.232,231.321 C364.98,231.297 376.5,236.443 384.817,244.782 L384.817,244.782 z" fill="#FFDC00"/>
    <path d="M716.138,246.102 L687.077,206.133 C684.622,202.753 685.369,198.025 688.747,195.571 C690.089,194.596 691.645,194.124 693.186,194.124 C695.523,194.124 697.827,195.205 699.307,197.238 L723.698,230.786 L717.617,239.151 C717.276,239.612 716.986,240.111 716.756,240.644 C716.755,240.648 716.754,240.648 716.753,240.652 C716.75,240.659 716.746,240.671 716.742,240.678 C716.739,240.686 716.736,240.693 716.733,240.697 C716.732,240.701 716.731,240.704 716.729,240.708 C716.317,241.684 716.123,242.719 716.138,243.744 L716.138,246.102" fill="#4AB2BC"/>
    <path d="M731.258,246.102 L731.258,243.74 C731.27,242.87 731.134,241.993 730.839,241.154 C730.582,240.421 730.215,239.737 729.762,239.124 L723.698,230.786 L748.087,197.238 C749.569,195.205 751.871,194.124 754.211,194.124 C755.749,194.124 757.306,194.596 758.648,195.571 C762.024,198.025 762.772,202.753 760.319,206.133 L731.258,246.102" fill="#4AB2BC"/>
    <path d="M716.138,243.744 C716.123,242.72 716.316,241.684 716.729,240.709 C716.348,241.612 716.138,242.602 716.138,243.642 L716.138,243.744 M731.258,243.74 L731.258,243.642 C731.258,242.772 731.11,241.933 730.838,241.155 C731.133,241.994 731.269,242.871 731.258,243.74 M716.732,240.697 C716.736,240.693 716.739,240.686 716.742,240.678 C716.739,240.686 716.736,240.693 716.732,240.697 M716.753,240.652 C716.754,240.648 716.754,240.648 716.755,240.644 C716.754,240.648 716.754,240.648 716.753,240.652 M717.617,239.151 L723.697,230.786 L729.761,239.125 C728.381,237.28 726.178,236.086 723.698,236.086 C721.205,236.086 718.994,237.291 717.617,239.151" fill="#4AB2BC"/>
    <path d="M723.698,275.02 C719.522,275.02 716.138,271.633 716.138,267.456 L716.138,246.102 L717.488,247.958 C717.721,248.295 717.984,248.612 718.276,248.915 C718.942,249.603 719.717,250.139 720.554,250.521 C721.556,250.979 722.627,251.206 723.691,251.206 C723.694,251.206 723.696,251.206 723.698,251.206 C723.7,251.206 723.702,251.206 723.704,251.206 C724.768,251.206 725.838,250.979 726.843,250.521 C727.648,250.151 728.397,249.641 729.047,248.987 C729.372,248.665 729.663,248.314 729.916,247.947 L731.258,246.102 L731.258,267.456 C731.258,271.633 727.871,275.02 723.698,275.02" fill="#BF967D"/>
    <path d="M723.704,251.206 C723.702,251.206 723.7,251.206 723.698,251.206 C724.779,251.202 725.853,250.971 726.843,250.521 C725.838,250.979 724.768,251.206 723.704,251.206 M720.554,250.521 C719.717,250.14 718.942,249.603 718.276,248.915 C718.572,249.217 718.898,249.501 719.252,249.758 C719.668,250.06 720.104,250.313 720.554,250.521 M729.047,248.987 C729.319,248.715 729.576,248.412 729.81,248.091 L729.916,247.947 C729.663,248.314 729.372,248.665 729.047,248.987 M717.488,247.959 L716.138,246.103 L716.138,243.744 C716.159,245.237 716.62,246.711 717.488,247.959 M716.729,240.708 C716.73,240.705 716.732,240.701 716.733,240.697 C716.732,240.701 716.73,240.705 716.729,240.708 M716.742,240.678 C716.746,240.671 716.749,240.659 716.753,240.652 C716.749,240.659 716.746,240.671 716.742,240.678 M716.755,240.644 C716.986,240.111 717.276,239.612 717.617,239.151 L717.583,239.196 C717.248,239.658 716.973,240.145 716.755,240.644" fill="#4AB2BC"/>
    <path d="M723.692,251.205 C722.628,251.205 721.557,250.979 720.554,250.521 C721.543,250.971 722.617,251.202 723.698,251.205 C723.696,251.205 723.694,251.205 723.692,251.205 M726.844,250.521 C727.293,250.313 727.728,250.06 728.144,249.758 C728.469,249.523 728.771,249.263 729.047,248.987 C728.397,249.641 727.649,250.151 726.844,250.521 M718.276,248.915 C717.984,248.612 717.722,248.295 717.488,247.958 L717.583,248.091 C717.798,248.386 718.029,248.658 718.276,248.915 M729.917,247.947 C730.779,246.7 731.236,245.229 731.259,243.74 L731.259,246.102 L729.917,247.947 M730.839,241.154 C730.601,240.47 730.261,239.813 729.811,239.196 L729.762,239.125 C730.215,239.737 730.582,240.421 730.839,241.154" fill="#4AB2BC"/>
    <path d="M723.698,251.206 C722.616,251.202 721.542,250.972 720.554,250.522 C720.104,250.314 719.668,250.061 719.252,249.758 C718.898,249.501 718.572,249.218 718.276,248.915 C718.029,248.658 717.797,248.386 717.583,248.091 L717.488,247.959 C716.62,246.712 716.159,245.237 716.138,243.744 L716.138,243.642 C716.138,242.603 716.348,241.612 716.729,240.709 C716.73,240.705 716.732,240.701 716.733,240.698 C716.736,240.694 716.739,240.686 716.742,240.679 C716.746,240.671 716.749,240.66 716.753,240.652 C716.754,240.648 716.755,240.648 716.755,240.645 C716.973,240.146 717.248,239.658 717.583,239.197 L717.617,239.152 C718.994,237.292 721.205,236.086 723.698,236.086 C726.178,236.086 728.382,237.28 729.761,239.125 L729.81,239.197 C730.26,239.813 730.6,240.471 730.839,241.155 C731.111,241.934 731.258,242.773 731.258,243.642 L731.258,243.74 C731.236,245.23 730.778,246.7 729.916,247.948 L729.81,248.091 C729.576,248.413 729.319,248.715 729.047,248.987 C728.771,249.263 728.469,249.524 728.143,249.758 C727.728,250.061 727.293,250.314 726.843,250.522 C725.853,250.972 724.779,251.202 723.698,251.206" fill="#4AB2BC"/>
    <path d="M635.205,260.523 L630.569,260.523 L622.889,245.403 L635.205,245.403 C639.381,245.403 642.765,248.788 642.765,252.963 C642.765,257.138 639.381,260.523 635.205,260.523" fill="#FFDC00"/>
    <path d="M663.805,275.098 C659.63,275.098 656.245,271.713 656.245,267.538 C656.245,263.363 659.63,259.978 663.805,259.978 L671.365,259.978 L671.365,267.538 C671.365,271.713 667.98,275.098 663.805,275.098" fill="#5CAC35"/>
    <path d="M357.722,271.219 C361.047,274.423 361.146,279.715 357.943,283.04 C354.739,286.365 349.447,286.463 346.122,283.26 C342.797,280.057 342.699,274.765 345.902,271.44 C349.105,268.115 354.397,268.016 357.722,271.219 z" fill="#BF967D"/>
    <path d="M329.037,269.418 C324.682,282.348 331.611,296.426 344.512,300.862 L344.512,300.862 L347.493,292.012 C339.468,289.252 335.159,280.496 337.868,272.455 L337.868,272.455 C340.576,264.412 349.276,260.129 357.301,262.889 L357.301,262.889 L360.282,254.038 C347.38,249.602 333.392,256.487 329.037,269.418" fill="#D1080D"/>
  </g>
</svg>
